<svg width="682" height="614" viewBox="0 0 682 614" fill="none" xmlns="http://www.w3.org/2000/svg">
<g clip-path="url(#clip0)">
<path style="mix-blend-mode:screen" fill-rule="evenodd" clip-rule="evenodd" d="M552.013 275.985C552.013 428.389 428.417 551.931 275.994 551.931C235.44 551.986 195.378 543.06 158.684 525.797C151.659 522.502 144.792 518.891 138.096 515.029C111.367 499.589 87.4184 479.774 67.2489 456.408C59.8968 447.945 53.0738 439.037 46.8186 429.734C38.2642 417.029 30.7951 403.627 24.4902 389.669C8.32142 353.953 -0.0154075 315.19 0.0398234 275.985C-0.0110492 236.709 8.35308 197.877 24.5693 162.104C29.5828 151.009 35.3474 140.27 41.8231 129.96C55.7137 107.689 72.7226 87.5224 92.3319 70.0737C142.818 24.8788 208.23 -0.0639014 275.994 0.0395048C298.055 0.0253765 320.04 2.65358 341.476 7.86794C370.272 14.8757 397.742 26.5057 422.815 42.3051C427.639 45.3495 432.358 48.5125 436.945 51.8469C440.794 54.6013 444.577 57.4876 448.267 60.4529C466.386 74.8798 482.608 91.5384 496.549 110.033C526.353 149.478 544.926 196.253 550.3 245.396C551.453 255.552 552.025 265.765 552.013 275.985Z" fill="url(#paint0_radial)"/>
<path fill-rule="evenodd" clip-rule="evenodd" d="M532.044 275.985C532.044 417.372 417.371 531.978 275.993 531.978C238.359 532.034 201.18 523.747 167.133 507.715C160.622 504.671 154.255 501.323 148.034 497.738C123.241 483.408 101.023 465.028 82.3012 443.361C75.4827 435.51 69.157 427.244 63.3603 418.61C55.4198 406.822 48.4801 394.391 42.6137 381.445C27.6215 348.32 19.8914 312.371 19.9426 276.012C19.8906 239.576 27.6482 203.553 42.6928 170.367C47.3432 160.072 52.694 150.107 58.7075 140.543C71.5974 119.883 87.3815 101.176 105.579 84.9926C152.414 43.0691 213.092 19.9294 275.954 20.0192C296.422 20.0093 316.818 22.4516 336.704 27.2941C363.416 33.7868 388.896 44.5714 412.151 59.2273C416.633 62.0608 420.996 64.9997 425.253 68.0837C428.838 70.6404 432.344 73.3553 435.798 76.0703C452.591 89.4826 467.626 104.958 480.547 122.131C508.202 158.714 525.433 202.103 530.41 247.69C531.486 257.083 532.031 266.53 532.044 275.985Z" fill="url(#paint1_radial)"/>
<g style="mix-blend-mode:multiply" opacity="0.5">
<path fill-rule="evenodd" clip-rule="evenodd" d="M530.463 247.624C529.568 249.271 528.801 250.985 528.169 252.75C527.206 255.309 525.996 257.767 524.558 260.091C523.067 263.13 521.747 266.25 520.603 269.435C517.624 276.328 515.436 283.814 512.958 290.904C510.204 298.812 507.607 306.719 504.22 314.363C502.704 317.829 500.489 320.953 498.947 324.34C497.405 327.727 495.889 331.048 494.004 334.329C489.338 342.342 485.12 350.514 480.178 358.395C471.294 372.589 460.604 385.201 450.244 398.314C444.972 404.904 438.829 410.663 432.832 416.62C426.057 423.315 420.099 430.814 413.061 437.364C407.711 442.671 401.927 447.52 395.768 451.861C392.235 454.194 388.835 456.79 385.302 459.084C380.781 462.023 375.469 463.683 370.645 466.055C354.604 473.778 337.429 478.602 320.558 484.019C304.029 489.29 288.093 496.526 271.222 500.743C267.755 501.613 264.249 501.956 260.743 502.667C256.947 503.418 253.296 504.512 249.408 504.921C241.657 505.791 234.158 508.387 226.328 508.875C220.858 509.138 215.783 508.084 210.432 507.82C203.575 507.704 196.717 508.003 189.896 508.716C182.316 509.204 174.706 508.912 167.186 507.847C160.674 504.802 154.308 501.455 148.087 497.87L148.798 498.094C153.254 499.531 157.392 502.048 161.874 503.142C166.658 504.236 171.628 505.026 176.57 505.857C183.043 506.99 189.659 507.03 196.144 505.975C199.611 505.409 203.117 504.987 206.583 504.275C210.353 503.484 214.149 504.46 217.919 503.603C223.191 502.285 228.964 503.339 234.302 503.142C243.529 502.839 252.532 499.452 261.429 497.646C271.301 495.656 280.673 492.071 290.73 490.872C296.463 490.187 300.971 488.236 306.402 486.536C311.068 485.099 314.047 482.503 317.922 479.564C325.382 473.989 332.921 468.27 341.647 464.658C350.361 461.121 359.409 458.472 368.655 456.751C376.613 455.206 384.05 451.669 390.271 446.471C392.842 444.165 395.28 441.753 397.811 439.42C401.046 436.737 404.126 433.872 407.037 430.841C410.201 427.216 413.812 423.908 416.936 420.297C420.403 416.278 423.237 411.757 426.664 407.724C432.12 401.28 440.451 397.932 445.828 391.382C446.962 390.064 447.713 388.364 448.886 387.046C450.059 385.728 451.404 384.977 452.155 383.211C453.065 381.063 455.292 376.094 454.08 373.683C451.668 368.819 438.895 381.326 436.865 383.277C433.702 386.255 431.105 389.313 427.296 391.488C425.055 392.896 422.716 394.142 420.297 395.217C416.224 396.878 411.519 397.062 407.222 397.972C395.28 400.529 383.114 401.926 371.067 403.81C354.749 406.327 338.26 409.754 322.205 413.668C307.179 417.332 292.298 421.576 277.272 425.121C269.284 427.045 261.297 429.075 253.283 430.814C243.49 433.002 233.881 436.007 224.048 437.892C207.849 440.83 191.557 444.415 175.041 444.863C162.085 445.206 149.247 445.878 136.277 445.878C118.812 445.878 100.082 447.644 82.947 443.545C82.7275 443.5 82.5117 443.438 82.3012 443.361C75.4827 435.51 69.157 427.244 63.3603 418.61C69.6265 421.416 76.2004 423.478 82.947 424.752C87.8503 425.622 93.0436 426.742 97.1033 429.681C99.6436 431.734 102.508 433.351 105.579 434.465C116.73 438.05 126.668 437.826 137.832 434.544C142.006 433.305 146.149 432.014 150.262 430.669C153.306 429.641 156.101 427.836 159.145 427.006C167.779 424.752 176.702 423.131 185.402 421.141C189.54 420.192 193.877 419.401 197.95 418.162C202.537 416.726 206.834 414.393 211.236 412.588C219.672 409.121 227.514 405.55 236.556 403.995C242.237 403.059 248.828 402.347 254.034 399.711C255.721 398.881 258.252 397.708 257.988 395.455C257.685 392.661 254.034 393.412 252.031 393.754C246.192 394.769 240.247 395.296 234.447 396.838C224.203 399.503 213.714 401.119 203.143 401.662C187.247 402.716 171.048 403.665 155.112 402.835C142.458 402.189 129.726 401.056 117.072 401.174C104.827 401.293 92.925 400.239 81.2863 396.39C68.145 392.068 54.7664 388.114 42.6137 381.445C27.6215 348.32 19.8914 312.371 19.9426 276.012C19.8906 239.576 27.6482 203.553 42.6928 170.367C40.9924 175.046 39.5689 179.83 37.605 184.337C33.6583 193.039 31.545 202.46 31.3968 212.013C31.6342 215.749 31.6078 219.497 31.3177 223.229C30.6718 227.973 30.3028 231.031 31.6604 235.815C32.6753 239.321 32.9785 242.708 34.5206 246.095C35.016 247.153 35.7045 248.109 36.5505 248.915C37.3046 249.982 37.9744 251.105 38.554 252.276C40.6234 255.663 43.6023 260.183 47.1743 262.134C49.5626 263.32 52.0613 264.269 54.6346 264.967C57.6398 265.824 58.813 266.167 61.8314 265.073C64.2707 264.094 66.8274 263.439 69.4366 263.122C70.8724 263.281 72.2866 263.594 73.6545 264.058C75.4603 264.361 77.2397 264.203 79.085 264.585C86.6113 266.167 93.953 268.012 101.677 267.933C107.74 267.867 113.698 268.882 119.84 268.882C127.221 268.882 134.524 269.106 141.826 268.17C146.769 267.524 152.08 266.285 157.01 265.982C161.94 265.679 167.225 266.127 172.26 266.061C189.778 265.785 207.849 261.567 223.072 252.724C231.192 247.941 239.892 244.22 248.96 241.653C260.638 238.293 272.566 234.985 284.548 232.718C295.671 230.565 306.492 227.073 316.775 222.32C321.317 220.172 325.665 217.637 329.771 214.742C333.541 212.185 337.68 210.234 341.291 207.559C351.836 199.757 361.062 190.61 370.289 181.306C375.561 176.034 380.913 170.763 386.422 165.715C390.97 161.564 395.794 159.718 401.633 158.295C410.939 156.068 416.132 145.604 421.141 138.105C427.468 128.655 432.714 117.809 433.004 106.171C433.155 101.375 432.789 96.5764 431.909 91.8588C431.597 89.742 431.003 87.6765 430.143 85.7173C429.408 84.5236 428.79 83.2613 428.298 81.9481C428.034 80.8279 427.995 79.6549 427.771 78.6401C427.547 77.6253 427.019 76.5974 426.795 75.7803C426.268 73.5925 425.174 70.5745 425.319 68.1627V68.0177C428.904 70.5745 432.41 73.2894 435.864 76.0043C435.929 77.0062 435.903 78.012 435.785 79.0091C435.561 80.2216 435.139 81.2364 434.915 82.4357C434.612 84.2149 433.939 85.2297 433.979 87.1802C433.899 89.1285 434.049 91.0793 434.427 92.9923C435.666 97.7368 438.764 102.139 438.724 107.147C438.581 112.231 437.453 117.239 435.402 121.894C433.597 126.415 431.646 130.592 429.458 134.928C428.051 137.792 426.374 140.515 424.449 143.06C422.504 145.381 420.742 147.848 419.177 150.44C418.046 152.521 417.026 154.659 416.119 156.845C414.458 160.799 411.782 162.868 408.777 165.807C402.595 171.764 394.871 176.588 388.241 182.308C382.796 186.827 377.859 191.927 373.518 197.516C371.634 200.152 361.998 207.651 364.595 211.605C365.755 213.345 369.419 212.778 371.067 212.778C374.854 212.741 378.591 211.905 382.033 210.327C391.405 206.07 400.75 201.022 410.622 198.083C415.064 196.765 419.849 196.053 424.027 194.129C429.097 191.769 434.006 189.079 438.724 186.077C442.454 183.77 444.669 180.805 447.463 177.484C449.045 175.599 451.259 174.545 452.999 172.819C455.029 170.776 456.307 168.404 458.574 166.638C464.12 162.219 468.968 156.989 472.955 151.126C476.619 145.854 477.963 139.264 479.545 133.268C480.061 131.727 480.414 130.137 480.599 128.523C480.665 126.494 480.599 124.385 480.599 122.342V122.013C508.263 158.611 525.495 202.018 530.463 247.624Z" fill="#FFD700"/>
</g>
</g>
<defs>
<radialGradient id="paint0_radial" cx="0" cy="0" r="1" gradientUnits="userSpaceOnUse" gradientTransform="translate(275.994 275.985) rotate(90) scale(275.946)">
<stop stop-color="#FFD700"/>
<stop offset="1" stop-color="#FFA500"/>
</radialGradient>
<radialGradient id="paint1_radial" cx="0" cy="0" r="1" gradientUnits="userSpaceOnUse" gradientTransform="translate(275.993 275.985) rotate(90) scale(255.993)">
<stop stop-color="#FFD700"/>
<stop offset="1" stop-color="#FFA500"/>
</radialGradient>
<clipPath id="clip0">
<rect width="682" height="614" fill="white"/>
</clipPath>
</defs>
</svg>